<svg width="169" height="33" viewBox="0 0 169 33" fill="none" xmlns="http://www.w3.org/2000/svg">
<g clip-path="url(#clip0)">
<path d="M124.323 10.5738C124.05 9.85498 123.657 9.22108 123.146 8.66798C122.634 8.11487 122.018 7.6757 121.3 7.35046C120.582 7.02523 119.782 6.86157 118.903 6.86157C118.011 6.86157 117.207 7.02523 116.489 7.35046C115.771 7.6757 115.159 8.11487 114.651 8.66798C114.144 9.22108 113.751 9.85498 113.474 10.5738C113.196 11.2926 113.056 12.0488 113.056 12.8442V12.8774C113.056 13.6729 113.192 14.429 113.465 15.1478C113.739 15.8667 114.131 16.5006 114.643 17.0537C115.155 17.6068 115.768 18.0459 116.481 18.3712C117.193 18.6964 117.994 18.8601 118.886 18.8601C119.765 18.8601 120.567 18.6964 121.291 18.3712C122.016 18.0459 122.63 17.6068 123.137 17.0537C123.645 16.5006 124.037 15.8667 124.315 15.1478C124.593 14.429 124.733 13.6729 124.733 12.8774C124.756 12.8546 124.756 12.8442 124.733 12.8442C124.733 12.0488 124.597 11.2926 124.323 10.5738ZM124.165 12.894C124.165 13.6232 124.035 14.3192 123.778 14.9821C123.522 15.645 123.165 16.225 122.705 16.7222C122.248 17.2194 121.697 17.6151 121.053 17.9071C120.41 18.1992 119.698 18.3463 118.917 18.3463C118.136 18.3463 117.42 18.1972 116.773 17.8989C116.126 17.6006 115.566 17.2007 115.096 16.6974C114.626 16.194 114.263 15.6119 114.006 14.949C113.749 14.2861 113.622 13.59 113.622 12.8608V12.8277C113.622 12.0985 113.749 11.4024 114.006 10.7395C114.263 10.0766 114.62 9.4966 115.079 8.99942C115.537 8.50225 116.09 8.10658 116.739 7.81449C117.387 7.5224 118.103 7.37532 118.884 7.37532C119.665 7.37532 120.381 7.52447 121.028 7.82278C121.676 8.12108 122.233 8.52089 122.695 9.02428C123.158 9.52767 123.519 10.1098 123.776 10.7727C124.033 11.4356 124.163 12.1316 124.163 12.8608V12.894H124.165Z" fill="white"/>
<path d="M107.877 7.05981L102.597 12.8436L107.877 18.6606H108.612L103.317 12.8436L108.612 7.05981H107.877Z" fill="white"/>
<path d="M138.488 8.73364C137.936 8.21367 137.279 7.80558 136.516 7.50727C135.754 7.20897 134.915 7.05981 134.002 7.05981H130.194V18.6606H134.002C134.915 18.6606 135.754 18.5114 136.516 18.2131C137.279 17.9148 137.936 17.5067 138.488 16.9867C139.039 16.4668 139.465 15.8577 139.766 15.1555C140.066 14.4532 140.217 13.695 140.217 12.8768V12.8436C140.217 12.0254 140.066 11.2672 139.766 10.5649C139.465 9.86471 139.039 9.2536 138.488 8.73364ZM139.649 12.8933C139.649 13.6225 139.515 14.3082 139.248 14.9483C138.98 15.5884 138.598 16.1478 138.101 16.6221C137.604 17.0965 137.011 17.4694 136.318 17.7408C135.627 18.0122 134.863 18.1468 134.025 18.1468H130.762V7.57356H134.009C134.856 7.57356 135.627 7.71236 136.318 7.98787C137.009 8.26339 137.6 8.64042 138.091 9.1148C138.582 9.58919 138.964 10.1506 139.237 10.7969C139.511 11.4432 139.647 12.131 139.647 12.8602V12.8933H139.649Z" fill="white"/>
<path d="M150.157 6.97729L144.611 18.6609H145.195L146.799 15.2801H154.032L155.619 18.6609H156.237L150.691 6.97729H150.157ZM147.05 14.7664L150.407 7.6402L153.782 14.7664H147.05Z" fill="white"/>
<path d="M168.792 14.5842C168.652 14.2631 168.427 13.9772 168.116 13.7224C167.804 13.4676 167.395 13.2439 166.888 13.0512C166.38 12.8586 165.766 12.6887 165.042 12.5458C164.33 12.4028 163.739 12.2454 163.271 12.0734C162.803 11.9015 162.434 11.7088 162.16 11.4934C161.887 11.278 161.695 11.0377 161.584 10.7725C161.473 10.5073 161.417 10.209 161.417 9.87758V9.84444C161.417 9.52334 161.492 9.21675 161.642 8.92466C161.793 8.63257 162.008 8.37156 162.286 8.14576C162.563 7.91996 162.902 7.73973 163.296 7.60715C163.691 7.47457 164.129 7.40828 164.608 7.40828C165.954 7.40828 167.174 7.83916 168.266 8.70093L168.617 8.25348C168.059 7.82259 167.458 7.48907 166.813 7.25084C166.167 7.01261 165.443 6.89453 164.641 6.89453C164.083 6.89453 163.574 6.97118 163.112 7.12655C162.651 7.28191 162.252 7.49736 161.918 7.77287C161.584 8.04839 161.323 8.36948 161.133 8.73408C160.943 9.09867 160.849 9.48606 160.849 9.89415V9.9273C160.849 10.3478 160.922 10.7207 161.066 11.0459C161.21 11.3712 161.442 11.6591 161.759 11.9077C162.077 12.1563 162.488 12.3738 162.996 12.5623C163.503 12.7508 164.113 12.9166 164.825 13.0595C165.526 13.2024 166.111 13.3599 166.579 13.5318C167.046 13.7038 167.416 13.8943 167.69 14.1036C167.963 14.3128 168.155 14.551 168.266 14.8162C168.377 15.0813 168.433 15.3859 168.433 15.7277V15.7608C168.433 16.1254 168.356 16.4631 168.199 16.7717C168.042 17.0804 167.817 17.3518 167.523 17.5838C167.228 17.8158 166.873 17.996 166.462 18.1224C166.05 18.2488 165.593 18.313 165.092 18.313C164.234 18.313 163.457 18.1659 162.762 17.8738C162.066 17.5817 161.406 17.1426 160.782 16.5563L160.398 16.9706C161.066 17.5776 161.782 18.0395 162.545 18.3544C163.307 18.6693 164.146 18.8267 165.059 18.8267C165.66 18.8267 166.203 18.7501 166.687 18.5947C167.172 18.4394 167.583 18.2218 167.923 17.9401C168.264 17.6584 168.527 17.329 168.717 16.954C168.907 16.5791 169.001 16.1648 169.001 15.7111V15.678C169.001 15.2699 168.932 14.9053 168.792 14.5842Z" fill="white"/>
<path d="M97.7418 0H96.9066V24.8588H97.7418V0Z" fill="#FFC600"/>
<path d="M59.5485 29.3127H60.7638C61.0499 29.3127 61.3109 29.3583 61.5489 29.4495C61.787 29.5406 61.9937 29.667 62.1649 29.8306C62.3361 29.9922 62.4698 30.1828 62.5637 30.4024C62.6577 30.622 62.7057 30.8581 62.7057 31.115V31.1254C62.7057 31.3802 62.6577 31.6184 62.5637 31.8401C62.4698 32.0617 62.3361 32.2523 62.1649 32.4139C61.9916 32.5755 61.787 32.7039 61.5489 32.7971C61.3109 32.8903 61.0478 32.9359 60.7638 32.9359H59.5485V29.3127ZM60.7659 32.6956C61.0206 32.6956 61.2503 32.6542 61.455 32.5734C61.6596 32.4926 61.835 32.3807 61.977 32.2419C62.119 32.1011 62.2296 31.9374 62.309 31.7489C62.3883 31.5604 62.4259 31.3574 62.4259 31.1378V31.1274C62.4259 30.912 62.3862 30.711 62.309 30.5205C62.2296 30.3299 62.1211 30.1642 61.977 30.0212C61.835 29.8783 61.6596 29.7664 61.455 29.6836C61.2503 29.6007 61.0206 29.5593 60.7659 29.5593H59.8221V32.6977H60.7659V32.6956Z" fill="white"/>
<path d="M64.7488 29.3127H65.0203V32.938H64.7488V29.3127Z" fill="white"/>
<path d="M67.0333 32.789L69.5328 29.5573H67.121V29.3149H69.9191V29.4641L67.4175 32.6957H69.9191V32.9381H67.0333V32.789Z" fill="white"/>
<path d="M73.2813 29.2883H73.5423L75.2441 32.9405H74.9476L74.4819 31.9254H72.3249L71.8614 32.9405H71.5795L73.2813 29.2883ZM74.3671 31.681L73.4066 29.5825L72.4398 31.681H74.3671Z" fill="white"/>
<path d="M77.1352 29.3127H77.4067V32.938H77.1352V29.3127Z" fill="white"/>
<path d="M79.6087 29.3127H79.8655L82.3858 32.4657V29.3127H82.6468V32.938H82.4422L79.8697 29.7167V32.938H79.6087V29.3127Z" fill="white"/>
<path d="M86.2031 29.2883H86.4641L88.1659 32.9405H87.8694L87.4037 31.9254H85.2468L84.7832 32.9405H84.5013L86.2031 29.2883ZM87.2889 31.681L86.3284 29.5825L85.3616 31.681H87.2889Z" fill="white"/>
<path d="M91.2557 32.9896C90.9634 32.9896 90.7003 32.9419 90.4643 32.8445C90.2284 32.7472 90.0029 32.6022 89.7836 32.4095L89.9611 32.2065C90.0613 32.2997 90.1615 32.3805 90.2618 32.4468C90.3599 32.5152 90.4622 32.569 90.5666 32.6125C90.671 32.656 90.7817 32.6892 90.8966 32.7099C91.0114 32.7327 91.1367 32.743 91.2724 32.743C91.4081 32.743 91.5334 32.7244 91.6483 32.6892C91.7631 32.654 91.8613 32.6022 91.9406 32.54C92.02 32.4758 92.0826 32.3992 92.1285 32.3122C92.1745 32.2251 92.1954 32.1278 92.1954 32.0242V32.0138C92.1954 31.9165 92.1807 31.8315 92.1515 31.7549C92.1223 31.6783 92.068 31.6099 91.9886 31.5477C91.9093 31.4856 91.8049 31.4297 91.6733 31.3799C91.5418 31.3302 91.3706 31.2847 91.1617 31.2432C90.9425 31.1977 90.7546 31.1459 90.598 31.0858C90.4414 31.0257 90.314 30.9553 90.2137 30.8724C90.1156 30.7916 90.0425 30.6963 89.9966 30.5907C89.9506 30.483 89.9277 30.3607 89.9277 30.224V30.2137C89.9277 30.079 89.9569 29.9547 90.0154 29.8387C90.0738 29.7227 90.1553 29.6233 90.2597 29.5363C90.3641 29.4493 90.4873 29.383 90.6314 29.3332C90.7734 29.2856 90.93 29.2607 91.1012 29.2607C91.3664 29.2607 91.594 29.296 91.7882 29.3705C91.9824 29.443 92.1703 29.5528 92.3541 29.702L92.1807 29.9154C92.0074 29.7662 91.832 29.6606 91.6566 29.5984C91.4812 29.5363 91.2912 29.5052 91.0907 29.5052C90.955 29.5052 90.8318 29.5238 90.7232 29.559C90.6147 29.5943 90.5207 29.644 90.4414 29.7061C90.362 29.7683 90.3035 29.8408 90.2618 29.9236C90.22 30.0065 90.1991 30.0956 90.1991 30.1867V30.1971C90.1991 30.2945 90.2137 30.3815 90.243 30.4581C90.2722 30.5348 90.3265 30.6073 90.4038 30.6715C90.481 30.7357 90.5917 30.7937 90.7295 30.8455C90.8694 30.8973 91.0469 30.9449 91.262 30.9905C91.6859 31.0775 91.9928 31.1977 92.1807 31.3551C92.3687 31.5125 92.4626 31.7238 92.4626 31.989V31.9993C92.4626 32.1444 92.4313 32.279 92.3708 32.4012C92.3102 32.5235 92.2267 32.6291 92.1202 32.714C92.0137 32.801 91.8863 32.8673 91.7381 32.917C91.5961 32.9647 91.4332 32.9896 91.2557 32.9896Z" fill="white"/>
<path d="M97.1243 29.3127H97.3958V32.938H97.1243V29.3127Z" fill="white"/>
<path d="M99.5986 29.3127H101.133C101.359 29.3127 101.559 29.3438 101.735 29.408C101.908 29.4723 102.052 29.5593 102.163 29.6691C102.25 29.7561 102.317 29.8555 102.365 29.9715C102.413 30.0875 102.438 30.2097 102.438 30.3423V30.3527C102.438 30.5039 102.411 30.6406 102.357 30.7587C102.303 30.8788 102.227 30.9804 102.131 31.0674C102.035 31.1544 101.923 31.2227 101.791 31.2766C101.659 31.3304 101.52 31.3677 101.365 31.3885L102.57 32.9359H102.225L101.06 31.434H101.05H99.8637V32.938H99.5923V29.3127H99.5986ZM101.102 31.1937C101.254 31.1937 101.396 31.1751 101.528 31.1357C101.659 31.0984 101.77 31.0425 101.864 30.9721C101.958 30.9016 102.031 30.8146 102.085 30.7131C102.14 30.6116 102.167 30.4935 102.167 30.363V30.3527C102.167 30.1062 102.075 29.9135 101.893 29.7706C101.712 29.6276 101.453 29.5572 101.119 29.5572H99.87V31.1937H101.102Z" fill="white"/>
<path d="M107.099 29.3127H108.425C108.628 29.3127 108.812 29.3376 108.977 29.3873C109.141 29.437 109.283 29.5095 109.405 29.6048C109.526 29.7001 109.618 29.8161 109.684 29.9529C109.751 30.0896 109.783 30.2449 109.783 30.421V30.4314C109.783 30.622 109.745 30.7877 109.668 30.9327C109.59 31.0777 109.488 31.1979 109.357 31.2952C109.225 31.3926 109.075 31.4651 108.901 31.5127C108.73 31.5604 108.546 31.5852 108.356 31.5852H107.371V32.938H107.099V29.3127ZM108.373 31.3429C108.544 31.3429 108.699 31.3222 108.837 31.2807C108.977 31.2393 109.096 31.1792 109.194 31.1005C109.292 31.0218 109.371 30.9286 109.425 30.8167C109.482 30.7048 109.509 30.5826 109.509 30.4459V30.4355C109.509 30.2905 109.482 30.1621 109.428 30.0523C109.373 29.9425 109.298 29.8514 109.2 29.7788C109.102 29.7063 108.987 29.6504 108.851 29.6131C108.716 29.5758 108.565 29.5551 108.402 29.5551H107.369V31.3429H108.373Z" fill="white"/>
<path d="M111.666 29.3127H113.201C113.427 29.3127 113.627 29.3438 113.803 29.408C113.976 29.4723 114.12 29.5593 114.231 29.6691C114.318 29.7561 114.385 29.8555 114.435 29.9715C114.483 30.0875 114.508 30.2097 114.508 30.3423V30.3527C114.508 30.5039 114.481 30.6406 114.427 30.7587C114.373 30.8768 114.297 30.9804 114.201 31.0674C114.105 31.1544 113.993 31.2227 113.861 31.2766C113.73 31.3304 113.59 31.3677 113.435 31.3885L114.642 32.9359H114.297L113.132 31.434H113.122H111.938V32.938H111.666V29.3127ZM113.17 31.1937C113.322 31.1937 113.464 31.1751 113.596 31.1357C113.727 31.0984 113.838 31.0425 113.932 30.9721C114.026 30.9016 114.099 30.8146 114.153 30.7131C114.208 30.6116 114.235 30.4935 114.235 30.363V30.3527C114.235 30.1062 114.143 29.9135 113.961 29.7706C113.78 29.6276 113.521 29.5572 113.187 29.5572H111.94V31.1937H113.17Z" fill="white"/>
<path d="M118.193 33.0005C117.915 33.0005 117.662 32.9487 117.439 32.8472C117.215 32.7457 117.021 32.609 116.862 32.4391C116.702 32.2672 116.578 32.0704 116.491 31.8466C116.403 31.6229 116.359 31.3868 116.359 31.1382V31.1278C116.359 30.8792 116.403 30.641 116.493 30.4152C116.583 30.1894 116.706 29.9905 116.867 29.8165C117.027 29.6446 117.219 29.5058 117.447 29.4043C117.673 29.3028 117.925 29.251 118.205 29.251C118.481 29.251 118.731 29.3028 118.957 29.4043C119.182 29.5058 119.376 29.6425 119.537 29.8124C119.698 29.9843 119.821 30.1811 119.907 30.4048C119.995 30.6286 120.038 30.8647 120.038 31.1133C120.043 31.1175 120.043 31.1195 120.038 31.1237C120.038 31.3723 119.995 31.6105 119.905 31.8363C119.815 32.0621 119.692 32.261 119.531 32.435C119.37 32.609 119.176 32.7457 118.948 32.8472C118.719 32.9508 118.466 33.0005 118.193 33.0005ZM118.203 32.7581C118.429 32.7581 118.637 32.7167 118.827 32.6318C119.017 32.5468 119.18 32.4308 119.318 32.2858C119.456 32.1387 119.562 31.9668 119.64 31.77C119.717 31.5732 119.754 31.3619 119.754 31.1382V31.1278C119.754 30.9041 119.715 30.6928 119.638 30.4939C119.558 30.295 119.452 30.1231 119.314 29.976C119.176 29.8289 119.011 29.7129 118.821 29.6259C118.629 29.5389 118.42 29.4954 118.195 29.4954C117.969 29.4954 117.76 29.5369 117.57 29.6218C117.38 29.7067 117.217 29.8227 117.08 29.9677C116.942 30.1148 116.835 30.2868 116.758 30.4836C116.681 30.6804 116.643 30.8917 116.643 31.1154V31.1257C116.643 31.3495 116.683 31.5608 116.76 31.7596C116.839 31.9585 116.946 32.1304 117.084 32.2775C117.222 32.4246 117.387 32.5406 117.577 32.6276C117.767 32.7146 117.975 32.7581 118.203 32.7581Z" fill="white"/>
<path d="M123.716 33.0005C123.428 33.0005 123.169 32.9508 122.941 32.8534C122.713 32.754 122.521 32.6214 122.365 32.4515C122.208 32.2817 122.087 32.0849 122.003 31.8591C121.92 31.6333 121.878 31.393 121.878 31.1361V31.1257C121.878 30.8813 121.92 30.6451 122.006 30.4193C122.091 30.1935 122.212 29.9947 122.371 29.8207C122.53 29.6466 122.72 29.5099 122.943 29.4063C123.167 29.3028 123.413 29.251 123.684 29.251C123.835 29.251 123.97 29.2613 124.094 29.2821C124.217 29.3028 124.332 29.3338 124.438 29.3753C124.545 29.4167 124.645 29.4664 124.741 29.5265C124.837 29.5845 124.929 29.6529 125.021 29.7274L124.843 29.9284C124.701 29.8041 124.538 29.7005 124.355 29.6176C124.171 29.5348 123.943 29.4933 123.668 29.4933C123.444 29.4933 123.242 29.5369 123.058 29.6218C122.874 29.7088 122.713 29.8248 122.58 29.974C122.446 30.1231 122.342 30.295 122.269 30.4918C122.196 30.6886 122.158 30.8958 122.158 31.1133V31.1237C122.158 31.3578 122.193 31.5753 122.264 31.7762C122.335 31.9772 122.44 32.1491 122.576 32.2941C122.711 32.4391 122.876 32.553 123.068 32.6359C123.26 32.7188 123.48 32.7602 123.724 32.7602C123.839 32.7602 123.952 32.7498 124.064 32.7271C124.175 32.7043 124.282 32.6753 124.38 32.6359C124.48 32.5986 124.572 32.5551 124.66 32.5054C124.747 32.4557 124.822 32.4039 124.889 32.348V31.3101H123.668V31.0677H125.15V32.4619C124.983 32.6069 124.776 32.7333 124.532 32.841C124.286 32.9466 124.014 33.0005 123.716 33.0005Z" fill="white"/>
<path d="M127.214 29.3127H128.748C128.974 29.3127 129.174 29.3438 129.35 29.408C129.523 29.4723 129.667 29.5593 129.778 29.6691C129.866 29.7561 129.932 29.8555 129.98 29.9715C130.028 30.0875 130.053 30.2097 130.053 30.3423V30.3527C130.053 30.5039 130.026 30.6406 129.972 30.7587C129.918 30.8788 129.843 30.9804 129.746 31.0674C129.65 31.1544 129.538 31.2227 129.406 31.2766C129.275 31.3304 129.135 31.3677 128.98 31.3885L130.185 32.9359H129.84L128.675 31.434H128.665H127.479V32.938H127.207V29.3127H127.214ZM128.717 31.1937C128.869 31.1937 129.011 31.1751 129.143 31.1357C129.275 31.0984 129.385 31.0425 129.479 30.9721C129.573 30.9016 129.646 30.8146 129.701 30.7131C129.755 30.6116 129.782 30.4935 129.782 30.363V30.3527C129.782 30.1062 129.69 29.9135 129.508 29.7706C129.327 29.6276 129.068 29.5572 128.734 29.5572H127.485V31.1937H128.717Z" fill="white"/>
<path d="M133.458 29.2883H133.719L135.42 32.9405H135.124L134.66 31.9254H132.503L132.04 32.9405H131.758L133.458 29.2883ZM134.543 31.681L133.583 29.5825L132.616 31.681H134.543Z" fill="white"/>
<path d="M137.272 29.3127H137.529L138.995 31.4568L140.463 29.3127H140.718V32.938H140.446V29.7892L139.001 31.8773H138.98L137.535 29.7892V32.938H137.274V29.3127H137.272Z" fill="white"/>
<path d="M144.273 29.2883H144.534L146.236 32.9405H145.94L145.476 31.9254H143.319L142.856 32.9405H142.574L144.273 29.2883ZM145.359 31.681L144.399 29.5825L143.432 31.681H145.359Z" fill="white"/>
<path d="M147.775 29.3127H148.078L149.508 32.648L150.945 29.3127H151.233L149.625 32.9649H149.385L147.775 29.3127Z" fill="white"/>
<path d="M153.12 29.3127H153.391V32.938H153.12V29.3127Z" fill="white"/>
<path d="M155.595 29.3127H155.85L157.318 31.4568L158.784 29.3127H159.041V32.938H158.769V29.7892L157.324 31.8773H157.303L155.858 29.7892V32.938H155.597V29.3127H155.595Z" fill="white"/>
<path d="M162.595 29.2883H162.856L164.558 32.9405H164.261L163.798 31.9254H161.639L161.175 32.9405H160.893L162.595 29.2883ZM163.681 31.681L162.72 29.5825L161.753 31.681H163.681Z" fill="white"/>
<path d="M167.65 32.9896C167.358 32.9896 167.095 32.9419 166.859 32.8445C166.623 32.7472 166.397 32.6022 166.178 32.4095L166.356 32.2065C166.456 32.2997 166.556 32.3805 166.656 32.4468C166.757 32.5131 166.857 32.569 166.961 32.6125C167.066 32.656 167.174 32.6892 167.289 32.7099C167.404 32.7327 167.529 32.743 167.665 32.743C167.801 32.743 167.926 32.7244 168.041 32.6892C168.156 32.654 168.254 32.6022 168.333 32.54C168.412 32.4758 168.475 32.3992 168.521 32.3122C168.567 32.2251 168.59 32.1278 168.59 32.0242V32.0138C168.59 31.9165 168.575 31.8315 168.546 31.7549C168.517 31.6783 168.463 31.6099 168.385 31.5477C168.308 31.4856 168.202 31.4297 168.07 31.3799C167.938 31.3302 167.767 31.2847 167.558 31.2432C167.339 31.1977 167.151 31.1459 166.995 31.0858C166.838 31.0257 166.711 30.9553 166.61 30.8724C166.51 30.7916 166.439 30.6963 166.393 30.5907C166.347 30.485 166.324 30.3607 166.324 30.224V30.2137C166.324 30.079 166.354 29.9547 166.414 29.8387C166.473 29.7227 166.554 29.6233 166.658 29.5363C166.763 29.4493 166.886 29.383 167.028 29.3332C167.17 29.2856 167.327 29.2607 167.498 29.2607C167.763 29.2607 167.991 29.296 168.185 29.3705C168.377 29.443 168.567 29.5528 168.751 29.702L168.579 29.9154C168.406 29.7662 168.231 29.6606 168.055 29.5984C167.88 29.5363 167.69 29.5052 167.49 29.5052C167.354 29.5052 167.231 29.5238 167.122 29.559C167.013 29.5943 166.919 29.644 166.84 29.7061C166.761 29.7683 166.702 29.8408 166.661 29.9236C166.619 30.0065 166.598 30.0956 166.598 30.1867V30.1971C166.598 30.2945 166.613 30.3815 166.642 30.4581C166.671 30.5348 166.725 30.6073 166.805 30.6715C166.884 30.7357 166.993 30.7937 167.13 30.8455C167.27 30.8973 167.448 30.9449 167.663 30.9905C168.087 31.0775 168.394 31.1977 168.582 31.3551C168.77 31.5125 168.863 31.7238 168.863 31.989V31.9993C168.863 32.1444 168.832 32.279 168.772 32.4012C168.711 32.5235 168.628 32.6291 168.521 32.714C168.415 32.801 168.287 32.8673 168.139 32.917C167.991 32.9647 167.828 32.9896 167.65 32.9896Z" fill="white"/>
<path fill-rule="evenodd" clip-rule="evenodd" d="M8.08302 13.1343C7.7698 12.8629 7.37724 12.635 6.90324 12.4465C6.42925 12.258 5.88425 12.0881 5.27035 11.9328C4.71283 11.8002 4.25136 11.6738 3.88803 11.5516C3.52471 11.4294 3.24072 11.3009 3.034 11.1621C2.82728 11.0233 2.68529 10.87 2.60803 10.6981C2.52868 10.5262 2.4911 10.3314 2.4911 10.1098V10.0766C2.4911 9.68926 2.65815 9.36402 2.99224 9.09886C3.32634 8.8337 3.79407 8.70112 4.39544 8.70112C4.92999 8.70112 5.45828 8.80263 5.98239 9.00771C6.50651 9.2128 7.03479 9.50696 7.56935 9.89434L8.67186 8.3531C8.07049 7.87871 7.42736 7.51619 6.74246 7.2676C6.05756 7.01901 5.28706 6.89472 4.42885 6.89472C3.85045 6.89472 3.3159 6.97758 2.82728 7.1433C2.33867 7.30903 1.91896 7.53897 1.57234 7.83106C1.22362 8.12315 0.952172 8.47739 0.751714 8.8917C0.553345 9.30602 0.453117 9.76176 0.453117 10.2589V10.2921C0.453117 10.8224 0.538729 11.2761 0.712041 11.651C0.885352 12.026 1.13592 12.345 1.46584 12.6039C1.79576 12.8629 2.20294 13.0845 2.68947 13.2668C3.17599 13.4491 3.72934 13.6128 4.35577 13.7557C4.90285 13.878 5.34552 13.9981 5.68797 14.1203C6.02833 14.2426 6.29561 14.3751 6.49189 14.5181C6.68608 14.661 6.82181 14.8143 6.8928 14.9738C6.96589 15.1333 7.00138 15.3198 7.00138 15.529V15.5621C7.00138 16.0034 6.81554 16.3576 6.44177 16.6228C6.06801 16.8879 5.56477 17.0205 4.92999 17.0205C4.19498 17.0205 3.53723 16.89 2.95883 16.6311C2.38043 16.3721 1.8062 15.9992 1.23824 15.5124L0 16.9708C0.7016 17.6006 1.46375 18.0667 2.28855 18.3712C3.11335 18.6757 3.97573 18.8269 4.87779 18.8269C5.4896 18.8269 6.0513 18.7503 6.56288 18.5949C7.07447 18.4395 7.51297 18.2137 7.8763 17.9154C8.24171 17.6171 8.52569 17.2525 8.73033 16.8216C8.93496 16.3908 9.03728 15.9039 9.03728 15.3633V15.3301C9.03728 14.8557 8.95584 14.4373 8.79506 14.0789C8.63219 13.7205 8.39414 13.4056 8.08302 13.1343ZM23.9713 8.61826C23.4368 8.07758 22.7957 7.64877 22.0503 7.33389C21.3048 7.01901 20.48 6.86157 19.578 6.86157C18.6759 6.86157 17.8511 7.02108 17.1057 7.34217C16.3602 7.66327 15.7129 8.09622 15.1679 8.64312C14.6229 9.19001 14.199 9.82598 13.8984 10.549C13.5977 11.2719 13.4473 12.0426 13.4473 12.8608V12.894C13.4473 13.7122 13.5977 14.4829 13.8984 15.2058C14.199 15.9288 14.6167 16.5627 15.1512 17.1034C15.6858 17.6441 16.3268 18.0729 17.0723 18.3877C17.8177 18.7026 18.6425 18.8601 19.5446 18.8601C20.4466 18.8601 21.2714 18.7006 22.0169 18.3795C22.7623 18.0584 23.4096 17.6254 23.9546 17.0785C24.4996 16.5316 24.9235 15.8957 25.2242 15.1727C25.5249 14.4497 25.6752 13.6791 25.6752 12.8608V12.8277C25.6752 12.0094 25.5249 11.2388 25.2242 10.5158C24.9235 9.79283 24.5059 9.16101 23.9713 8.61826ZM23.5036 12.894C23.5036 13.4574 23.4075 13.9877 23.2134 14.4849C23.0192 14.9821 22.7498 15.4151 22.4074 15.7859C22.0628 16.1567 21.6515 16.4488 21.1691 16.6642C20.6847 16.8797 20.1543 16.9874 19.578 16.9874C19.0017 16.9874 18.4692 16.8776 17.9806 16.6559C17.492 16.4343 17.0744 16.1401 16.7236 15.7693C16.3748 15.3985 16.1034 14.9635 15.9092 14.4601C15.715 13.9567 15.619 13.4243 15.619 12.8608V12.8277C15.619 12.2642 15.715 11.7339 15.9092 11.2367C16.1034 10.7395 16.3728 10.3066 16.7152 9.93577C17.0597 9.56496 17.4732 9.27287 17.9534 9.05743C18.4358 8.84199 18.9662 8.73427 19.5425 8.73427C20.1188 8.73427 20.6513 8.84406 21.1399 9.06571C21.6285 9.28737 22.0461 9.58153 22.3948 9.95234C22.7435 10.3232 23.015 10.7582 23.2092 11.2616C23.4034 11.765 23.4994 12.2974 23.4994 12.8608V12.894H23.5036ZM32.7079 7.06044H30.6699V18.6612H38.8553V16.8216H32.7079V7.06044ZM43.6328 18.6612H45.6708V7.06044H43.6328V18.6612ZM60.1622 8.71769C59.6109 8.19773 58.9532 7.7917 58.191 7.49961C57.4289 7.20752 56.5895 7.06044 55.677 7.06044H51.317V18.6612H55.677C56.5895 18.6612 57.4289 18.512 58.191 18.2137C58.9532 17.9154 59.6109 17.5073 60.1622 16.9874C60.7135 16.4674 61.1394 15.8542 61.4401 15.1478C61.7408 14.4414 61.8911 13.6791 61.8911 12.8608V12.8277C61.8911 12.0094 61.7408 11.2512 61.4401 10.549C61.1394 9.84877 60.7135 9.23766 60.1622 8.71769ZM59.7195 12.894C59.7195 13.4595 59.6214 13.9836 59.4272 14.4663C59.233 14.949 58.9595 15.3653 58.6087 15.7154C58.2579 16.0655 57.8319 16.3369 57.3307 16.5316C56.8296 16.7264 56.2721 16.8216 55.6603 16.8216H53.355V8.89999H55.6603C56.2721 8.89999 56.8296 8.99943 57.3307 9.20037C57.8319 9.39924 58.2579 9.67475 58.6087 10.0248C58.9595 10.3749 59.233 10.7934 59.4272 11.2823C59.6214 11.7712 59.7195 12.2974 59.7195 12.8629V12.894ZM74.6703 13.7392C74.6703 14.8102 74.4072 15.6181 73.881 16.1587C73.3548 16.6994 72.6323 16.9708 71.7135 16.9708C70.7843 16.9708 70.0556 16.6891 69.5294 16.1256C69.0032 15.5621 68.7401 14.7397 68.7401 13.6563V7.06044H66.7021V13.7392C66.7021 14.5781 66.8191 15.3156 67.0529 15.9516C67.2868 16.5876 67.6209 17.12 68.0552 17.5508C68.4895 17.9817 69.0136 18.3049 69.6255 18.5203C70.2373 18.7358 70.9222 18.8435 71.6801 18.8435C72.4486 18.8435 73.1418 18.7358 73.7599 18.5203C74.378 18.3049 74.9042 17.9796 75.3385 17.5426C75.7728 17.1055 76.109 16.5627 76.3491 15.9102C76.5893 15.2576 76.7083 14.5015 76.7083 13.6397V7.06044H74.6703V13.7392ZM90.0616 14.0789C89.9009 13.7205 89.6628 13.4056 89.3496 13.1343C89.0364 12.8629 88.6438 12.635 88.1698 12.4465C87.6958 12.258 87.1508 12.0881 86.5369 11.9328C85.9794 11.8002 85.5179 11.6738 85.1546 11.5516C84.7913 11.4294 84.5073 11.3009 84.3006 11.1621C84.0939 11.0233 83.9519 10.87 83.8746 10.6981C83.7953 10.5262 83.7577 10.3314 83.7577 10.1098V10.0766C83.7577 9.68926 83.9247 9.36402 84.2588 9.09886C84.5929 8.8337 85.0607 8.70112 85.662 8.70112C86.1966 8.70112 86.7249 8.80263 87.249 9.00771C87.7731 9.2128 88.3014 9.50696 88.8359 9.89434L89.9384 8.3531C89.3371 7.87871 88.6939 7.51619 88.009 7.2676C87.3242 7.01901 86.5536 6.89472 85.6954 6.89472C85.117 6.89472 84.5825 6.97758 84.0939 7.1433C83.6053 7.30903 83.1855 7.53897 82.8389 7.83106C82.4902 8.12315 82.2167 8.47739 82.0183 8.8917C81.8199 9.30602 81.7197 9.76176 81.7197 10.2589V10.2921C81.7197 10.8224 81.8053 11.2761 81.9786 11.651C82.1519 12.026 82.4025 12.345 82.7324 12.6039C83.0623 12.8629 83.4695 13.0845 83.9561 13.2668C84.4405 13.4491 84.9959 13.6128 85.6224 13.7557C86.1694 13.878 86.6142 13.9981 86.9546 14.1203C87.2949 14.2426 87.5622 14.3751 87.7585 14.5181C87.9527 14.661 88.0884 14.8143 88.1594 14.9738C88.2325 15.1333 88.268 15.3198 88.268 15.529V15.5621C88.268 16.0034 88.0821 16.3576 87.7084 16.6228C87.3346 16.8879 86.8314 17.0205 86.1966 17.0205C85.4616 17.0205 84.8038 16.89 84.2254 16.6311C83.647 16.3721 83.0728 15.9992 82.5048 15.5124L81.2687 16.9708C81.9703 17.6006 82.7324 18.0667 83.5572 18.3712C84.382 18.6757 85.2444 18.8269 86.1465 18.8269C86.7583 18.8269 87.32 18.7503 87.8316 18.5949C88.3431 18.4395 88.7816 18.2137 89.145 17.9154C89.5083 17.6171 89.7944 17.2525 89.999 16.8216C90.2036 16.3908 90.306 15.9039 90.306 15.3633V15.3301C90.306 14.8557 90.2245 14.4393 90.0616 14.0789Z" fill="white"/>
</g>
<defs>
<clipPath id="clip0">
<rect width="169" height="33" fill="white"/>
</clipPath>
</defs>
</svg>
